# xmcd CD database file
#
# Track frame offsets:
#	150
#	10057
#	18400
#	22207
#	35473
#	39443
#	54588
#	76207
#	82630
#	99046
#	133267
#	181283
#
# Disc length: 3122 seconds
#
# Revision: 0
# Processed by: cddbd v1.5.1PL2 Copyright (c) Steve Scherf et al.
# Submitted via: CDex 1.51
#
DISCID=830c300c
DTITLE=László Dés - The Hanged
DYEAR=1999
DGENRE=Jazz
TTITLE0=Introduction
TTITLE1=Awakening
TTITLE2=Play
TTITLE3=Life
TTITLE4=Fear
TTITLE5=Aggression
TTITLE6=Death
TTITLE7=Soul-bell
TTITLE8=Bereavement
TTITLE9=Mbira -Trad. Music ( Zimbabwe)
TTITLE10=Otea -Trad. Music ( Tahiti)
TTITLE11=Sound Track - Film of The Hanged
EXTD=YEAR: 1999
EXTT0=
EXTT1=
EXTT2=
EXTT3=
EXTT4=
EXTT5=
EXTT6=
EXTT7=
EXTT8=
EXTT9=
EXTT10=
EXTT11=
PLAYORDER=
